<svg width="57" height="57" viewBox="0 0 57 57" fill="none" xmlns="http://www.w3.org/2000/svg">
<g id="Group 7620">
<g id="Group">
<path id="Vector" d="M56.7217 30.4021L53.3621 25.0669L55.3548 19.0793C55.6247 18.2621 55.2885 17.3648 54.5476 16.9372L49.1111 13.782L48.1114 7.54726C47.9721 6.69666 47.2599 6.06206 46.4062 6.02643L40.1359 5.77926L36.3738 0.72466C35.8606 0.0343839 34.9317 -0.194966 34.1642 0.176893L28.5 2.88901L22.8335 0.174666C22.0639 -0.192739 21.1394 0.0366106 20.624 0.72466L16.8619 5.77926L10.5916 6.02643C9.7401 6.05983 9.02571 6.69444 8.88858 7.54504L7.88888 13.7798L2.45245 16.935C1.71152 17.3625 1.37312 18.2599 1.64295 19.0771L3.63572 25.0647L0.278315 30.4021C-0.179513 31.1302 -0.0622912 32.081 0.554782 32.6778L5.08219 37.0488L4.5735 43.3414C4.50493 44.2032 5.04459 44.9892 5.86515 45.2297L11.8921 46.9776L14.3449 52.7915C14.6811 53.582 15.5238 54.0407 16.3598 53.8581L22.5084 52.5889L27.361 56.5903C27.6905 56.8597 28.0953 57 28.5 57C28.9047 57 29.3073 56.8597 29.639 56.5903L34.4916 52.5889L40.6402 53.8581C41.474 54.0363 42.3211 53.5842 42.6551 52.7915L45.1079 46.9776L51.1349 45.2297C51.9554 44.9914 52.4951 44.2032 52.4265 43.3414L51.9178 37.0488L56.4452 32.6778C57.0623 32.081 57.1795 31.1302 56.7217 30.4021ZM41.4983 21.6935L28.9114 40.6783C28.4359 41.3864 27.6994 41.8607 26.9673 41.8607C26.2374 41.8607 25.4213 41.4487 24.9015 40.9232L15.6609 31.4709C15.0306 30.8252 15.0306 29.7786 15.6609 29.1329L17.9412 26.7948C18.5715 26.158 19.5956 26.158 20.2215 26.7948L26.2352 32.945L36.1526 17.986C36.6502 17.2312 37.661 17.0397 38.3953 17.5496L41.0693 19.4C41.8058 19.9121 41.996 20.9431 41.4983 21.6935Z" fill="#73D2BB"/>
</g>
<circle id="Ellipse 217" cx="28.5598" cy="28.5596" r="18.5637" fill="#73D2BB"/>
<path id="Vector 36" d="M18.564 28.2027L25.0348 35.6996L39.2697 20.7058" stroke="white" stroke-width="4" stroke-linecap="round" stroke-linejoin="round"/>
</g>
</svg>
